<svg xmlns="http://www.w3.org/2000/svg" version="1.1" viewBox="-5.0 -10.0 110.0 135.0">
  <g fill="#ffffff">
   <path d="m48.305 19.91c0.37891 0.15234 0.80469-0.046875 0.9375-0.42578 3.5625-9.3164 12.652-15.574 22.621-15.574 2.7734 0 5.4375 0.46875 7.9258 1.332-0.51562 0.30469-1 0.63672-1.4844 1-0.60547 0.46875-1.1836 0.96875-1.7266 1.4688-0.69531 0.62109-1.3477 1.1953-2.0742 1.6953-0.83203 0.57422-2.4844 1.4844-4.1055 1.1367-0.54688-0.12109-1.0742-0.37891-1.6367-0.65234-0.89453-0.42578-1.8164-0.86328-2.9102-0.83203-0.85156 0.03125-1.5781 0.33594-2.2891 0.63672-0.33203 0.13672-0.63672 0.27344-0.9375 0.36328-0.75781 0.24219-1.6953 0.16797-1.9531-0.37891-0.066406-0.089844-0.082031-0.22656-0.097656-0.36328-0.015625-0.41016-0.33203-0.72656-0.74219-0.71094-0.41016 0-0.72656 0.33203-0.71094 0.74219 0 0.36328 0.074218 0.69531 0.22656 1 0.63672 1.3164 2.3477 1.5625 3.7266 1.1367 0.37891-0.12109 0.72656-0.27344 1.0742-0.41016 0.60547-0.25781 1.1953-0.5 1.7578-0.53125 0.72656-0.03125 1.4531 0.33203 2.2266 0.69531 0.62109 0.28906 1.2422 0.58984 1.9531 0.75781 0.37891 0.074218 0.74219 0.12109 1.1055 0.12109 1.6367 0 3.1211-0.75781 4.168-1.4688 0.78906-0.5625 1.5156-1.1953 2.2109-1.8164 0.5625-0.5 1.0742-0.96875 1.6523-1.3945 0.74219-0.57422 1.5469-1.0625 2.3789-1.4531 1.9375 0.84766 3.7578 1.9531 5.3945 3.2734-1.6055 1.0742-3.3047 2.0469-5.0898 3.0625l-1.875 1.0117c-2.8789 1.6211-5.8477 3.3047-8.4688 5.3164-0.31641 0.24219-0.37891 0.71094-0.13672 1.0312 0.15234 0.18359 0.36328 0.28906 0.57422 0.28906 0.15234 0 0.31641-0.046875 0.4375-0.15234 2.5312-1.9375 5.4688-3.5898 8.3047-5.1953l1.8633-1.0625c1.8477-1.0469 3.7578-2.1367 5.5312-3.3477 2.4531 2.2148 4.4258 4.9258 5.8008 7.9727-0.24219 0.53125-0.68359 1.4531-1.1055 2.3789-0.53125 1.1367-1.0625 2.2734-1.2266 2.6211l-0.12109 0.25781c-0.83203 1.7109-1.8477 3.832-3.4258 4.5156-0.78906 0.34766-1.6953 0.27344-2.6523 0.18359-0.75781-0.0625-1.5625-0.12109-2.3633 0-0.39453 0.0625-0.66797 0.4375-0.60547 0.83203 0.0625 0.39453 0.4375 0.66797 0.83203 0.60547 0.63672-0.10547 1.3047-0.046875 2.0156 0.015625 0.4375 0.03125 0.87891 0.074219 1.332 0.074219 0.68359 0 1.3477-0.074219 2.0312-0.37891 2.0625-0.89453 3.2266-3.2891 4.1523-5.2109l0.12109-0.25781c0.16797-0.36328 0.69531-1.5 1.2266-2.6367 0.18359-0.39453 0.36328-0.77344 0.53125-1.1367 0.91016 2.5312 1.3945 5.2578 1.3945 8.0898 0 1.1953-0.089844 2.3945-0.25781 3.5625-1.332 0.81641-4 1-6 0.87891-0.66797-0.046875-1.5-0.089844-2.1836 0.4375-0.78906 0.63672-0.95312 1.8047-0.4375 3.1211 0.046876 0.12109 0.10547 0.24219 0.15234 0.36328 0.22656 0.5625 0.45312 1.1055 0.33203 1.5312-0.089844 0.33203-0.41016 0.66797-0.92578 0.96875-0.16797 0.089844-0.33203 0.18359-0.5 0.27344-0.42578 0.22656-0.87891 0.45312-1.2734 0.81641-0.77344 0.68359-1.1211 1.6523-0.87891 2.4688 0.18359 0.60547 0.66797 1.1367 1.332 1.4375 0.41016 0.19531 0.81641 0.28906 1.2109 0.39453l0.27344 0.0625c0.72656 0.18359 1.4102 0.46875 2.0625 0.81641-1.7734 1.7578-3.832 3.2891-6.1523 4.4531-0.36328 0.18359-0.5 0.62109-0.31641 0.98438 0.13672 0.25781 0.37891 0.39453 0.65234 0.39453 0.10547 0 0.22656-0.03125 0.33203-0.074218 7.4102-3.7734 12.41-10.727 13.711-18.742 0-0.03125 0.015625-0.0625 0.015625-0.089844 0.21094-1.332 0.33203-2.6836 0.33203-4.0625 0-3.6055-0.75781-7.0469-2.1055-10.168-0.015625-0.03125-0.03125-0.0625-0.046875-0.089844-2.6211-5.9844-7.4688-10.805-13.484-13.363-0.046875-0.015625-0.074219-0.046875-0.12109-0.046875-3.0625-1.2891-6.4102-2-9.9258-2-10.574 0-20.211 6.6367-23.984 16.516-0.14453 0.36719 0.039062 0.79297 0.41797 0.92969zm38.68 23.043c-0.33203-0.074219-0.65234-0.16797-0.9375-0.28906-0.28906-0.13672-0.48438-0.33203-0.54688-0.53125-0.089844-0.31641 0.16797-0.71094 0.4375-0.95312 0.27344-0.24219 0.62109-0.42578 1-0.62109 0.18359-0.089844 0.36328-0.19531 0.5625-0.30469 0.86328-0.51562 1.4102-1.1367 1.5898-1.8477 0.25781-0.91016-0.089844-1.7422-0.39453-2.4688-0.046874-0.12109-0.089843-0.22656-0.13672-0.34766-0.21094-0.53125-0.28906-1.2109 0-1.4375 0.24219-0.18359 0.71094-0.15234 1.1953-0.12109 0.9375 0.0625 3.668 0.13672 5.7422-0.57422-0.89453 4.0156-2.7891 7.6836-5.4844 10.727-0.84766-0.5-1.7734-0.89453-2.7266-1.1523z"/>
   <path d="m61.832 13.379c-0.71094 0.24219-1.2422 0.51562-1.6836 0.89453-0.60547 0.51562-0.96875 1.1836-1.0469 1.8945-0.074218 0.80469 0.28906 1.5469 0.96875 1.9844 0.36328 0.24219 0.78906 0.36328 1.2109 0.36328 0.39453 0 0.80469-0.10547 1.168-0.31641 0 0 0.089843-0.046875 0.089843-0.0625l1.6953-1.0312c0.51562-0.31641 1.4531-0.89453 1.4375-2.0156-0.015625-0.65234-0.39453-1.2734-0.98438-1.6211-0.99219-0.60547-2.0977-0.34766-2.8555-0.089844zm1.6523 2.4844-1.6367 1c-0.046875 0.015625-0.074218 0.046875-0.16797 0.089844-0.30469 0.16797-0.62109 0.089844-0.81641-0.03125-0.10547-0.074219-0.34766-0.25781-0.30469-0.62109v-0.03125c0.046875-0.30469 0.24219-0.62109 0.53125-0.87891 0.28906-0.24219 0.68359-0.4375 1.2109-0.62109 0.75781-0.25781 1.2734-0.27344 1.6523-0.046875 0.15234 0.089844 0.25781 0.24219 0.25781 0.39453v0.015624c0 0.23047-0.25781 0.44141-0.72656 0.73047z"/>
   <path d="m4.5 96.09h-1.3164c-0.41016 0-0.72656 0.33203-0.72656 0.72656 0 0.39453 0.33203 0.72656 0.72656 0.72656h1.3164c0.41016 0 0.72656-0.33203 0.72656-0.72656 0-0.39062-0.33203-0.72656-0.72656-0.72656z"/>
   <path d="m51.848 84.758c-1.5625 0-2.8164 1.2578-2.8164 2.8164 0 0.75781 0.28906 1.4688 0.81641 2 0.53125 0.53125 1.2422 0.81641 2 0.81641h4.168c1.5625 0 2.8164-1.2578 2.8164-2.8164 0-0.75781-0.28906-1.4688-0.81641-2-0.53125-0.53125-1.2422-0.81641-2-0.81641zm5.5312 2.8164c0 0.74219-0.60547 1.3477-1.3477 1.3477h-4.168c-0.36328 0-0.71094-0.13672-0.95312-0.39453-0.25781-0.25781-0.39453-0.58984-0.39453-0.95312 0-0.74219 0.60547-1.3477 1.3477-1.3477h4.168c0.36328 0 0.71094 0.13672 0.95312 0.39453 0.25781 0.25781 0.39453 0.58984 0.39453 0.95312z"/>
   <path d="m45.453 89.652c0.18359 0 0.37891-0.074219 0.51562-0.21094 0.28906-0.28906 0.28906-0.74219 0-1.0312l-2.668-2.668c-0.28906-0.28906-0.74219-0.28906-1.0312 0-0.28906 0.28906-0.28906 0.74219 0 1.0312l2.668 2.668c0.15234 0.13281 0.33594 0.21094 0.51562 0.21094z"/>
   <path d="m25.031 85.727c-0.28906 0.28906-0.28906 0.74219 0 1.0312l2.668 2.668c0.13672 0.13672 0.33203 0.21094 0.51562 0.21094s0.37891-0.074219 0.51562-0.21094c0.28906-0.28906 0.28906-0.74219 0-1.0312l-2.668-2.668c-0.28906-0.28906-0.74609-0.28906-1.0312 0z"/>
   <path d="m42.395 90.91c0.18359 0 0.37891-0.074218 0.51562-0.21094 0.28906-0.28906 0.28906-0.74219 0-1.0312l-5.1953-5.1953c-0.28906-0.28906-0.74219-0.28906-1.0312 0-0.28906 0.28906-0.28906 0.74219 0 1.0312l5.1953 5.1953c0.13672 0.13281 0.33203 0.21094 0.51562 0.21094z"/>
   <path d="m38.074 90.91c0.18359 0 0.37891-0.074218 0.51562-0.21094 0.28906-0.28906 0.28906-0.74219 0-1.0312l-5.1953-5.1953c-0.28906-0.28906-0.74219-0.28906-1.0312 0-0.28906 0.28906-0.28906 0.74219 0 1.0312l5.1953 5.1953c0.13672 0.13281 0.32031 0.21094 0.51562 0.21094z"/>
   <path d="m33.742 90.91c0.18359 0 0.37891-0.074218 0.51562-0.21094 0.28906-0.28906 0.28906-0.74219 0-1.0312l-5.1953-5.1953c-0.28906-0.28906-0.74219-0.28906-1.0312 0-0.28906 0.28906-0.28906 0.74219 0 1.0312l5.1953 5.1953c0.13672 0.13281 0.33594 0.21094 0.51563 0.21094z"/>
   <path d="m51.848 66.273c-1.5625 0-2.8164 1.2578-2.8164 2.8164 0 0.75781 0.28906 1.4688 0.81641 2 0.53125 0.53125 1.2422 0.81641 2 0.81641h4.168c1.5625 0 2.8164-1.2578 2.8164-2.8164 0-0.75781-0.28906-1.4688-0.81641-2-0.53125-0.53125-1.2422-0.81641-2-0.81641zm5.5312 2.8164c0 0.74219-0.60547 1.3477-1.3477 1.3477h-4.168c-0.36328 0-0.71094-0.13672-0.95312-0.39453-0.25781-0.25781-0.39453-0.58984-0.39453-0.95312 0-0.74219 0.60547-1.3477 1.3477-1.3477h4.168c0.36328 0 0.71094 0.13672 0.95312 0.39453 0.25781 0.25781 0.39453 0.58984 0.39453 0.95312z"/>
   <path d="m45.453 71.168c0.18359 0 0.37891-0.074219 0.51562-0.21094 0.28906-0.28906 0.28906-0.74219 0-1.0312l-2.668-2.668c-0.28906-0.28906-0.74219-0.28906-1.0312 0-0.28906 0.28906-0.28906 0.74219 0 1.0312l2.668 2.668c0.15234 0.13281 0.33594 0.21094 0.51562 0.21094z"/>
   <path d="m25.031 67.242c-0.28906 0.28906-0.28906 0.74219 0 1.0312l2.668 2.668c0.13672 0.13672 0.33203 0.21094 0.51562 0.21094s0.37891-0.074219 0.51562-0.21094c0.28906-0.28906 0.28906-0.74219 0-1.0312l-2.668-2.668c-0.28906-0.28906-0.74609-0.28906-1.0312 0z"/>
   <path d="m42.395 72.426c0.18359 0 0.37891-0.074219 0.51562-0.21094 0.28906-0.28906 0.28906-0.74219 0-1.0312l-5.1953-5.1953c-0.28906-0.28906-0.74219-0.28906-1.0312 0-0.28906 0.28906-0.28906 0.74219 0 1.0312l5.1953 5.1953c0.13672 0.13281 0.33203 0.21094 0.51562 0.21094z"/>
   <path d="m38.074 72.426c0.18359 0 0.37891-0.074219 0.51562-0.21094 0.28906-0.28906 0.28906-0.74219 0-1.0312l-5.1953-5.1953c-0.28906-0.28906-0.74219-0.28906-1.0312 0-0.28906 0.28906-0.28906 0.74219 0 1.0312l5.1953 5.1953c0.13672 0.13281 0.32031 0.21094 0.51562 0.21094z"/>
   <path d="m33.742 72.426c0.18359 0 0.37891-0.074219 0.51562-0.21094 0.28906-0.28906 0.28906-0.74219 0-1.0312l-5.1953-5.1953c-0.28906-0.28906-0.74219-0.28906-1.0312 0-0.28906 0.28906-0.28906 0.74219 0 1.0312l5.1953 5.1953c0.13672 0.13281 0.33594 0.21094 0.51563 0.21094z"/>
   <path d="m51.848 47.789c-1.5625 0-2.8164 1.2578-2.8164 2.8164 0 0.75781 0.28906 1.4688 0.81641 2 0.53125 0.53125 1.2422 0.81641 2 0.81641h4.168c1.5625 0 2.8164-1.2578 2.8164-2.8164 0-0.75781-0.28906-1.4688-0.81641-2-0.53125-0.53125-1.2422-0.81641-2-0.81641zm5.5312 2.8164c0 0.74219-0.60547 1.3477-1.3477 1.3477h-4.168c-0.36328 0-0.71094-0.13672-0.95312-0.39453-0.25781-0.25781-0.39453-0.58984-0.39453-0.95312 0-0.74219 0.60547-1.3477 1.3477-1.3477h4.168c0.36328 0 0.71094 0.13672 0.95312 0.39453 0.25781 0.25781 0.39453 0.58984 0.39453 0.95312z"/>
   <path d="m63.91 47.789c-1.5625 0-2.8164 1.2578-2.8164 2.8164 0 0.75781 0.28906 1.4688 0.81641 2 0.53125 0.53125 1.2422 0.81641 2 0.81641h4.168c1.5625 0 2.8164-1.2578 2.8164-2.8164 0-0.75781-0.28906-1.4688-0.81641-2-0.53125-0.53125-1.2422-0.81641-2-0.81641zm5.5273 2.8164c0 0.74219-0.60547 1.3477-1.3477 1.3477h-4.168c-0.36328 0-0.71094-0.13672-0.95312-0.39453-0.25781-0.25781-0.39453-0.58984-0.39453-0.95312 0-0.74219 0.60547-1.3477 1.3477-1.3477h4.168c0.36328 0 0.71094 0.13672 0.95312 0.39453 0.24609 0.25781 0.39453 0.58984 0.39453 0.95312z"/>
   <path d="m45.453 52.684c0.18359 0 0.37891-0.074219 0.51562-0.21094 0.28906-0.28906 0.28906-0.74219 0-1.0312l-2.668-2.668c-0.28906-0.28906-0.74219-0.28906-1.0312 0-0.28906 0.28906-0.28906 0.74219 0 1.0312l2.668 2.668c0.15234 0.13281 0.33594 0.21094 0.51562 0.21094z"/>
   <path d="m25.031 48.758c-0.28906 0.28906-0.28906 0.74219 0 1.0312l2.668 2.668c0.13672 0.13672 0.33203 0.21094 0.51562 0.21094s0.37891-0.074219 0.51562-0.21094c0.28906-0.28906 0.28906-0.74219 0-1.0312l-2.668-2.668c-0.28906-0.28906-0.74609-0.28906-1.0312 0z"/>
   <path d="m42.395 53.938c0.18359 0 0.37891-0.074219 0.51562-0.21094 0.28906-0.28906 0.28906-0.74219 0-1.0312l-5.1953-5.1953c-0.28906-0.28906-0.74219-0.28906-1.0312 0-0.28906 0.28906-0.28906 0.74219 0 1.0312l5.1953 5.1953c0.13672 0.13672 0.33203 0.21094 0.51562 0.21094z"/>
   <path d="m38.074 53.938c0.18359 0 0.37891-0.074219 0.51562-0.21094 0.28906-0.28906 0.28906-0.74219 0-1.0312l-5.1953-5.1953c-0.28906-0.28906-0.74219-0.28906-1.0312 0-0.28906 0.28906-0.28906 0.74219 0 1.0312l5.1953 5.1953c0.13672 0.13672 0.32031 0.21094 0.51562 0.21094z"/>
   <path d="m33.742 53.938c0.18359 0 0.37891-0.074219 0.51562-0.21094 0.28906-0.28906 0.28906-0.74219 0-1.0312l-5.1953-5.1953c-0.28906-0.28906-0.74219-0.28906-1.0312 0s-0.28906 0.74219 0 1.0312l5.1953 5.1953c0.13672 0.13672 0.33594 0.21094 0.51563 0.21094z"/>
   <path d="m51.848 34.938h4.168c1.5625 0 2.8164-1.2578 2.8164-2.8164 0-0.75781-0.28906-1.4688-0.81641-2-0.53125-0.53125-1.2422-0.81641-2-0.81641h-4.168c-1.5625 0-2.8164 1.2578-2.8164 2.8164 0 0.75781 0.28906 1.4688 0.81641 2 0.54688 0.53125 1.2578 0.81641 2 0.81641zm0-4.1641h4.168c0.36328 0 0.71094 0.13672 0.95312 0.39453 0.25781 0.25781 0.39453 0.58984 0.39453 0.95312 0 0.74219-0.60547 1.3477-1.3477 1.3477h-4.168c-0.36328 0-0.71094-0.13672-0.95312-0.39453-0.25781-0.25781-0.39453-0.58984-0.39453-0.95312 0-0.74219 0.60547-1.3477 1.3477-1.3477z"/>
   <path d="m63.91 34.938h4.168c1.5625 0 2.8164-1.2578 2.8164-2.8164 0-0.75781-0.28906-1.4688-0.81641-2-0.53125-0.53125-1.2422-0.81641-2-0.81641h-4.168c-1.5625 0-2.8164 1.2578-2.8164 2.8164 0 0.75781 0.28906 1.4688 0.81641 2s1.2422 0.81641 2 0.81641zm0-4.1641h4.168c0.36328 0 0.71094 0.13672 0.95312 0.39453 0.25781 0.25781 0.39453 0.58984 0.39453 0.95312 0 0.74219-0.60547 1.3477-1.3477 1.3477h-4.168c-0.36328 0-0.71094-0.13672-0.95312-0.39453-0.25781-0.25781-0.39453-0.58984-0.39453-0.95312 0-0.74219 0.60547-1.3477 1.3477-1.3477z"/>
   <path d="m44.938 33.984c0.13672 0.13672 0.33203 0.21094 0.51562 0.21094s0.37891-0.074218 0.51562-0.21094c0.28906-0.28906 0.28906-0.74219 0-1.0312l-2.668-2.668c-0.28906-0.28906-0.74219-0.28906-1.0312 0-0.28906 0.28906-0.28906 0.74219 0 1.0312z"/>
   <path d="m27.695 33.984c0.13672 0.13672 0.33203 0.21094 0.51563 0.21094 0.18359 0 0.37891-0.074218 0.51562-0.21094 0.28906-0.28906 0.28906-0.74219 0-1.0312l-2.668-2.668c-0.28906-0.28906-0.74219-0.28906-1.0312 0-0.28906 0.28906-0.28906 0.74219 0 1.0312z"/>
   <path d="m41.879 35.242c0.13672 0.13672 0.33203 0.21094 0.51562 0.21094 0.18359 0 0.37891-0.074219 0.51562-0.21094 0.28906-0.28906 0.28906-0.74219 0-1.0312l-5.1953-5.1953c-0.28906-0.28906-0.74219-0.28906-1.0312 0-0.28906 0.28906-0.28906 0.74219 0 1.0312z"/>
   <path d="m37.547 35.242c0.13672 0.13672 0.33203 0.21094 0.51562 0.21094s0.37891-0.074219 0.51562-0.21094c0.28906-0.28906 0.28906-0.74219 0-1.0312l-5.1953-5.1953c-0.28906-0.28906-0.74219-0.28906-1.0312 0-0.28906 0.28906-0.28906 0.74219 0 1.0312z"/>
   <path d="m33.227 35.242c0.13672 0.13672 0.33203 0.21094 0.51563 0.21094 0.18359 0 0.37891-0.074219 0.51562-0.21094 0.28906-0.28906 0.28906-0.74219 0-1.0312l-5.1953-5.1953c-0.28906-0.28906-0.74219-0.28906-1.0312 0s-0.28906 0.74219 0 1.0312z"/>
   <path d="m79.5 92.137c0.046875 0 0.10547 0 0.15234-0.015625 6.8047-1.4258 11.742-7.5 11.742-14.453v-11.5c0-0.30469-0.19531-0.57422-0.48438-0.68359l-11.168-4.0898c-0.16797-0.0625-0.33203-0.0625-0.5 0l-11.168 4.0898c-0.28906 0.10547-0.48438 0.37891-0.48438 0.68359v11.5c0 6.9531 4.9375 13.031 11.742 14.453 0.078125 0 0.12109 0.015625 0.16797 0.015625zm-10.426-14.469v-11l10.426-3.8164 10.438 3.8164v11c0 6.2109-4.3789 11.652-10.426 12.984-6.0586-1.3359-10.438-6.7734-10.438-12.984z"/>
   <path d="m85.895 73.605c0.28906 0.28906 0.74219 0.28906 1.0312 0 0.28906-0.28906 0.28906-0.74219 0-1.0312-1.9844-1.9844-4.6211-3.0742-7.4258-3.0742s-5.4531 1.0898-7.4258 3.0742c-0.28906 0.28906-0.28906 0.74219 0 1.0312 0.13672 0.13672 0.33203 0.21094 0.51562 0.21094s0.37891-0.074218 0.51562-0.21094c1.7109-1.7109 3.9688-2.6523 6.3945-2.6523s4.6953 0.94141 6.3945 2.6523z"/>
   <path d="m83.637 75.863c0.13672 0.13672 0.33203 0.21094 0.51562 0.21094s0.37891-0.074219 0.51562-0.21094c0.28906-0.28906 0.28906-0.74219 0-1.0312-2.8477-2.8477-7.4844-2.8477-10.332 0-0.28906 0.28906-0.28906 0.74219 0 1.0312 0.28906 0.28906 0.74219 0.28906 1.0312 0 2.2852-2.2734 5.9961-2.2734 8.2695 0z"/>
   <path d="m81.379 78.121c0.28906 0.28906 0.74219 0.28906 1.0312 0 0.28906-0.28906 0.28906-0.74219 0-1.0312-1.6055-1.6055-4.2109-1.6055-5.8164 0-0.28906 0.28906-0.28906 0.74219 0 1.0312 0.13672 0.13672 0.33203 0.21094 0.51562 0.21094s0.37891-0.074219 0.51562-0.21094c1.043-1.0312 2.7227-1.0312 3.7539 0z"/>
   <path d="m80.742 80.305c0-0.69531-0.54688-1.2422-1.2422-1.2422s-1.2422 0.54688-1.2422 1.2422c0 0.69531 0.54688 1.2422 1.2422 1.2422s1.2422-0.54688 1.2422-1.2422z"/>
   <path d="m91.711 96.09h-7.1055c7.2266-3.1211 12.121-10.273 12.121-18.426v-15.227c0-0.30469-0.19531-0.57422-0.48437-0.68359l-16.484-6.0312c-0.16797-0.0625-0.33203-0.0625-0.5 0l-16.484 6.0312c-0.28906 0.10547-0.48438 0.37891-0.48438 0.68359v15.227c0 8.1523 4.8945 15.305 12.121 18.426h-55.215c-0.98437 0-1.8047-0.80469-1.8047-1.8047v-13.426c0-0.98438 0.80469-1.8047 1.8047-1.8047h40.168c0.41016 0 0.72656-0.33203 0.72656-0.72656 0-0.41016-0.33203-0.72656-0.72656-0.72656l-40.168 0.003907c-0.98437 0-1.8047-0.80469-1.8047-1.7891v-13.426c0-0.98438 0.80469-1.8047 1.8047-1.8047h40.211c0.41016 0 0.72656-0.33203 0.72656-0.72656 0-0.41016-0.33203-0.72656-0.72656-0.72656h-40.227c-0.98438 0-1.7891-0.80469-1.7891-1.8047v-13.426c0-0.98438 0.78906-1.7891 1.7734-1.8047h0.03125l57.773 0.007813h0.015625c0.98438 0 1.7891 0.80469 1.7891 1.8047v8.6055c0 0.41016 0.33203 0.72656 0.72656 0.72656s0.72656-0.33203 0.72656-0.72656v-8.6055c0-1.0312-0.48437-1.9258-1.2266-2.5312 0.74219-0.58984 1.2266-1.5 1.2266-2.5312v-13.426c0-1.8047-1.4688-3.2578-3.2578-3.2578h-12.637l-45.137 0.003907h-8.9688c-1.8047 0-3.2578 1.4688-3.2578 3.2578v3.2266 0.015625 0.015625 10.168c0 1.0312 0.48438 1.9258 1.2266 2.5312-0.74219 0.58594-1.2266 1.4961-1.2266 2.5117v13.422c0 1.0312 0.48438 1.9375 1.2266 2.5312-0.74219 0.60547-1.2266 1.5156-1.2266 2.5312v13.422c0 1.0312 0.48438 1.9258 1.2266 2.5312-0.74219 0.60547-1.2266 1.5-1.2266 2.5312v13.422c0 0.68359 0.21094 1.3047 0.5625 1.832-0.32031 0.078124-0.5625 0.35156-0.5625 0.69922 0 0.41016 0.33203 0.72656 0.72656 0.72656h84.016c0.41016 0 0.72656-0.33203 0.72656-0.72656 0-0.39062-0.31641-0.72656-0.72656-0.72656zm-27.969-18.422v-14.727l15.758-5.7734 15.758 5.7734v14.727c0 9.0156-6.4375 16.711-15.305 18.332l-0.46875 0.089844-0.46875-0.089844c-8.832-1.6211-15.273-9.3164-15.273-18.332zm0.60547-54.047h12.637c0.98438 0 1.8047 0.80469 1.8047 1.8047v13.426c0 0.98438-0.80469 1.7891-1.7891 1.8047h-0.015625l-57.789-0.003906h-0.015624c-0.98438 0-1.7891-0.80469-1.7891-1.8047v-13.426c0-0.98438 0.80469-1.8047 1.8047-1.8047zm-55.922 15.211v-10.168-0.015624-0.015626-3.2266c0-0.98438 0.80469-1.8047 1.8047-1.8047h6.2578c-0.34766 0.51563-0.54688 1.1367-0.54688 1.8047v13.426c0 0.66797 0.19531 1.2891 0.54688 1.8047h-6.2617c-0.98437 0-1.8008-0.80469-1.8008-1.8047zm8.0586 3.2734c-0.34766 0.51562-0.54688 1.1367-0.54688 1.8047v13.426c0 0.66797 0.19531 1.2891 0.54688 1.8047l-6.2578-0.003906c-0.98437 0-1.8047-0.80469-1.8047-1.8047l0.003906-2.332v-11.105c0-0.98438 0.80469-1.8047 1.8047-1.8047h6.2539zm-8.0586 33.699v-13.422c0-0.98437 0.80469-1.8047 1.8047-1.8047h6.2578c-0.34766 0.51562-0.54688 1.1367-0.54688 1.8047v13.426c0 0.66797 0.19531 1.2734 0.54688 1.7891l-6.2617-0.007812c-0.98437 0.015625-1.8008-0.78516-1.8008-1.7852zm0 18.484v-13.422c0-0.98438 0.80469-1.8047 1.8047-1.8047h6.2578c-0.34766 0.51562-0.54688 1.1367-0.54688 1.8047v13.426c0 0.66797 0.19531 1.2891 0.54688 1.8047l-6.2617-0.007812c-0.98437 0-1.8008-0.80078-1.8008-1.8008z"/>
   <path d="m96.816 96.09h-2.0469c-0.41016 0-0.72656 0.33203-0.72656 0.72656 0 0.39453 0.33203 0.72656 0.72656 0.72656h2.0469c0.41016 0 0.72656-0.33203 0.72656-0.72656 0.003906-0.39062-0.31641-0.72656-0.72656-0.72656z"/>
  </g>
 <text x="0.0" y="117.5" font-size="5.0" font-weight="bold" font-family="Arbeit Regular, Helvetica, Arial-Unicode, Arial, Sans-serif" fill="#000000">Created by Candy Design</text><text x="0.0" y="122.5" font-size="5.0" font-weight="bold" font-family="Arbeit Regular, Helvetica, Arial-Unicode, Arial, Sans-serif" fill="#000000">from Noun Project</text></svg>