<svg xmlns="http://www.w3.org/2000/svg" xmlns:xlink="http://www.w3.org/1999/xlink" width="350px" height="200px" viewBox="0 0 100 32" version="1.1">
  <!-- Generator: Sketch 51 (57462) - http://www.bohemiancoding.com/sketch -->
  <title>Group</title>
  <desc>Created with Sketch.</desc>
  <defs/>
  <g id="Symbols" stroke="none" stroke-width="1" fill="none">
      <g id="Nav" transform="translate(0.000000, -9.000000)" fill="#FEFEFE">
          <g id="Group">
              <g transform="translate(0.000000, 9.000000)">
                  <path d="M77.4830967,12.5707109 L83.9274786,12.5707109 C84.2769141,10.6259725 83.6648617,9.04091467 81.3445384,9.04091467 C79.2475655,9.04091467 77.9614991,10.6259725 77.4830967,12.5707109 Z M84.6112193,18.6150115 L85.9585271,21.6141611 L85.9037702,21.9289269 C83.9011809,22.673281 81.7152281,23 79.5573743,23 C74.0172016,23 70.388837,19.7295505 71.3975166,14.1572176 C72.4072769,8.58633343 76.7590089,5.34667234 81.9803668,5.34667234 C88.1974355,5.34667234 89.6495739,9.78599326 88.7392406,14.8052222 L88.5472312,15.8733976 L76.9510182,15.8733976 C76.8519515,18.2042584 78.4553918,19.1123342 81.2915827,19.1123342 C82.3020635,19.1123342 83.4299835,18.9652745 84.6112193,18.6150115 Z M92.2044152,0 L88.1026917,22.6106177 L93.9022391,22.6106177 L98,0 L92.2044152,0 Z M42.4819147,9.04091467 C40.3871033,9.04091467 39.1031983,10.6259725 38.6215538,12.5707109 L45.0666562,12.5707109 C45.4135699,10.6259725 44.8040392,9.04091467 42.4819147,9.04091467 Z M72.3103716,4.47373146 L69.0285605,22.6106177 L63.0355627,22.6106177 L65.0759774,11.3297584 L71.2015445,9.83453022 L65.3472402,9.83453022 L57.5465445,9.83453022 L56.9146788,13.3241204 L56.420786,16.0331349 C56.0536987,18.0763961 56.3548616,19.1293584 57.9510971,19.1293584 L59.5055444,22.673281 C58.38591,22.8051277 57.2554684,23 55.8036902,23 C50.6205181,23 49.7804321,20.6995653 50.5070416,16.681864 L51.7462766,9.81714385 L49.8269034,9.80881288 C50.2177667,11.2830325 50.2058787,13.0039214 49.8794988,14.8052222 L49.6831665,15.8733976 L38.0876741,15.8733976 C37.9900483,18.2042584 39.5931284,19.1123342 42.4282385,19.1123342 C43.3655901,19.1123342 44.3991264,18.9888185 45.4866992,18.6921635 L46.9564894,21.9593531 C44.974434,22.6808876 42.8201826,23 40.6951108,23 C35.1556586,23 31.527294,19.7295505 32.5388556,14.1572176 C33.5446532,8.58633343 37.8992671,5.34667234 43.1170226,5.34667234 C46.9417195,5.34667234 48.9597992,7.02844184 49.7379234,9.4904249 L49.967398,8.55590727 L59.0574024,1.5716558 L58.2854023,5.73605468 L66.0911414,5.73605468 L66.3177341,4.47373146 L62.439361,4.47373146 L63.2484662,0.00181108066 L78.6610904,0.00181108066 L77.853066,4.47373146 L72.3103716,4.47373146 Z M25.3523737,0.00181108066 L17.6439001,15.0290718 L17.5765347,15.0290718 L15.5285549,0.00181108066 L6.09163674,0.00181108066 L2,22.6106177 L7.85898749,22.6106177 L10.8767407,5.25032284 L10.9387025,5.25032284 L13.2716343,22.6106177 L18.7815466,22.6106177 L27.6575668,5.25032284 L27.7195285,5.25032284 L24.4823875,22.6106177 L30.3456979,22.6106177 L34.4387756,0.00181108066 L25.3523737,0.00181108066 Z" id="Fill-1"/>
                  <polygon id="Fill-3" points="0 32 72 25 1.2880658 25"/>
                  <path d="M96.9395357,20.3883333 L97.2456071,20.3883333 C97.5931071,20.3883333 97.8881071,20.27 97.8881071,19.9643333 C97.8881071,19.749 97.7209643,19.5316667 97.2456071,19.5316667 C97.1084643,19.5316667 97.0134643,19.5403333 96.9395357,19.5506667 L96.9395357,20.3883333 Z M96.9395357,21.7563333 L96.5173929,21.7563333 L96.5173929,19.2853333 C96.7391786,19.256 96.9506071,19.2256667 97.2666786,19.2256667 C97.6691786,19.2256667 97.9313214,19.3043333 98.0898929,19.4133333 C98.2481071,19.521 98.3323929,19.688 98.3323929,19.925 C98.3323929,20.2506667 98.10025,20.4473333 97.8156071,20.5256667 L97.8156071,20.546 C98.0466786,20.5846667 98.2056071,20.7816667 98.25775,21.1446667 C98.3220357,21.5303333 98.3848929,21.678 98.4281071,21.7563333 L97.9838214,21.7563333 C97.92025,21.678 97.8573929,21.4516667 97.8038214,21.126 C97.7416786,20.811 97.57275,20.693 97.2345357,20.693 L96.9395357,20.693 L96.9395357,21.7563333 Z M97.3831071,18.5956667 C96.3388214,18.5956667 95.4845357,19.4316667 95.4845357,20.4663333 C95.4845357,21.5193333 96.3388214,22.346 97.3934643,22.346 C98.4498929,22.357 99.2931071,21.5193333 99.2931071,20.477 C99.2931071,19.4316667 98.4498929,18.5956667 97.3934643,18.5956667 L97.3831071,18.5956667 Z M97.3934643,18.251 C98.6909643,18.251 99.7256071,19.2356667 99.7256071,20.4663333 C99.7256071,21.7176667 98.6909643,22.6923333 97.3831071,22.6923333 C96.0856071,22.6923333 95.0309643,21.7176667 95.0309643,20.4663333 C95.0309643,19.2356667 96.0856071,18.251 97.3831071,18.251 L97.3934643,18.251 Z" id="Fill-5"/>
              </g>
          </g>
      </g>
  </g>
</svg>