<svg xmlns="http://www.w3.org/2000/svg" data-name="Layer 1" viewBox="-5.0 -10.0 110.0 135.0" x="0px" y="0px">
  <defs>
    <style>.cls-1{fill-rule:evenodd;}</style>
  </defs>
  <title>a</title>
  <path fill="#ffffff" class="cls-1" d="M23.007,52.859A1.242,1.242,0,0,1,21.251,51.1L32.345,40.009a1.243,1.243,0,0,1,1.572-.151l9.7,5.6L67.553,27.731a1.237,1.237,0,0,1,1.474,1.988L44.481,47.9a1.239,1.239,0,0,1-1.4.109l-9.653-5.573L23.007,52.859Zm7.186-29.3a1.242,1.242,0,0,1,0-2.483H46.352a1.242,1.242,0,1,1,0,2.483Zm0,5.15H55.782a1.241,1.241,0,1,0,0-2.482H30.193a1.241,1.241,0,1,0,0,2.482Zm-5.427-6.486H19.985v5.34h4.781v-5.34Zm5.427-9.586a1.242,1.242,0,0,1,0-2.483H46.352a1.242,1.242,0,1,1,0,2.483Zm0-5.15a1.242,1.242,0,0,1,0-2.483H55.782a1.242,1.242,0,0,1,0,2.483ZM24.766,6.147H19.985v5.339h4.781V6.147Zm56.4,13.547-3.98,6.894a8.775,8.775,0,0,0,11.947-6.894Zm-6.12,5.657A8.766,8.766,0,0,1,79.218,9.776v8.356L75.05,25.351ZM81.858,9.618v7.436h7.436a8.768,8.768,0,0,0-7.436-7.436ZM71.15,83.382h5.691V45.993H71.15V83.382Zm-15.927,0h5.691V56.746H55.223V83.382Zm-15.926,0h5.691V70.438H39.3V83.382Zm-15.927,0h5.691V65.94H23.37V83.382ZM10.706,22.788V93.759A1.241,1.241,0,0,0,11.947,95H83.5a1.242,1.242,0,0,0,0-2.483H13.188V22.788a1.241,1.241,0,1,0-2.482,0Z"/>
  <text x="0.0" y="117.5" font-size="5.0" font-weight="bold" font-family="Arbeit Regular, Helvetica, Arial-Unicode, Arial, Sans-serif" fill="#000000">
    Created by Afrizalicon
  </text>
  <text x="0.0" y="122.5" font-size="5.0" font-weight="bold" font-family="Arbeit Regular, Helvetica, Arial-Unicode, Arial, Sans-serif" fill="#000000">
    from Noun Project
  </text>
</svg>