<svg xmlns="http://www.w3.org/2000/svg" xmlns:xlink="http://www.w3.org/1999/xlink" version="1.1" x="0px" y="0px" viewBox="0 0 48 60" style="enable-background:new 0 0 48 48;" xml:space="preserve">
  <g fill="#ffffff">
    <path d="M44,33h-0.18c0.11-0.31,0.18-0.65,0.18-1V12c0-2.76-2.24-5-5-5H9c-2.76,0-5,2.24-5,5v2c0,0.55,0.45,1,1,1s1-0.45,1-1v-2   c0-1.65,1.35-3,3-3h30c1.65,0,3,1.35,3,3v20c0,0.55-0.45,1-1,1H29.41c-0.53,0-1.04,0.21-1.41,0.59L26.59,35h-5.17L20,33.59   C19.63,33.21,19.11,33,18.59,33H7c-0.55,0-1-0.45-1-1V22c0-0.55-0.45-1-1-1s-1,0.45-1,1v10c0,0.35,0.07,0.69,0.18,1H4   c-1.1,0-2,0.9-2,2v2c0,2.21,1.79,4,4,4h26c0.55,0,1-0.45,1-1s-0.45-1-1-1H6c-1.1,0-2-0.9-2-2v-2h14.59L20,36.41   c0.37,0.37,0.89,0.59,1.41,0.59h5.17c0.53,0,1.04-0.21,1.41-0.59L29.41,35H44v2c0,1.1-0.9,2-2,2h-6c-0.55,0-1,0.45-1,1s0.45,1,1,1   h6c2.21,0,4-1.79,4-4v-2C46,33.9,45.1,33,44,33z"/>
    <g>
      <path d="M28,30h-2c-1.1,0-2-0.9-2-2v-8c0-1.1,0.9-2,2-2h2c1.1,0,2,0.9,2,2v8C30,29.1,29.1,30,28,30z M26,20L26,20v8h2v-8H26z"/>
    </g>
    <g>
      <path d="M20,30h-2c-1.1,0-2-0.9-2-2v-6c0-1.1,0.9-2,2-2h2c1.1,0,2,0.9,2,2v6C22,29.1,21.1,30,20,30z M18,22L18,22v6h2v-6H18z"/>
    </g>
    <g>
      <path d="M12,30h-2c-1.1,0-2-0.9-2-2v-4c0-1.1,0.9-2,2-2h2c1.1,0,2,0.9,2,2v4C14,29.1,13.1,30,12,30z M10,24L10,24v4h2v-4H10z"/>
    </g>
    <g>
      <path d="M9,19c-0.45,0-0.86-0.3-0.97-0.76c-0.13-0.54,0.19-1.08,0.73-1.21l20-5c0.53-0.14,1.08,0.19,1.21,0.73    c0.13,0.54-0.19,1.08-0.73,1.21l-20,5C9.16,18.99,9.08,19,9,19z"/>
    </g>
    <g>
      <path d="M39,14h-6c-0.55,0-1-0.45-1-1s0.45-1,1-1h6c0.55,0,1,0.45,1,1S39.55,14,39,14z"/>
    </g>
    <g>
      <path d="M39,18h-6c-0.55,0-1-0.45-1-1s0.45-1,1-1h6c0.55,0,1,0.45,1,1S39.55,18,39,18z"/>
    </g>
    <g>
      <path d="M39,22h-6c-0.55,0-1-0.45-1-1s0.45-1,1-1h6c0.55,0,1,0.45,1,1S39.55,22,39,22z"/>
    </g>
    <g>
      <path d="M39,26h-6c-0.55,0-1-0.45-1-1s0.45-1,1-1h6c0.55,0,1,0.45,1,1S39.55,26,39,26z"/>
    </g>
    <g>
      <path d="M39,30h-6c-0.55,0-1-0.45-1-1s0.45-1,1-1h6c0.55,0,1,0.45,1,1S39.55,30,39,30z"/>
    </g>
    <g>
      <circle cx="5" cy="18" r="1"/>
    </g>
  </g>
  <text x="0" y="63" fill="#000000" font-size="5px" font-weight="bold" font-family="'Helvetica Neue', Helvetica, Arial-Unicode, Arial, Sans-serif">
    Created by Aozora
  </text>
  <text x="0" y="68" fill="#000000" font-size="5px" font-weight="bold" font-family="'Helvetica Neue', Helvetica, Arial-Unicode, Arial, Sans-serif">
    from the Noun Project
  </text>
</svg>