<svg xmlns="http://www.w3.org/2000/svg" xmlns:xlink="http://www.w3.org/1999/xlink" xmlns:serif="http://www.serif.com/" viewBox="0 0 64 80" version="1.1" xml:space="preserve" style="" x="0px" y="0px" fill-rule="evenodd" clip-rule="evenodd" stroke-linejoin="round" stroke-miterlimit="2">
  <g fill="#ffffff">
    <path d="M38,40c1.106,0 1.811,-0.271 2.286,-0.646c0.53,-0.418 0.819,-0.99 0.966,-1.679c0.119,-0.558 0.134,-1.213 0.225,-1.878c0.095,-0.702 0.287,-1.436 1.079,-1.966c0.278,-0.185 0.444,-0.498 0.444,-0.832c-0,-0.334 -0.167,-0.646 -0.445,-0.831c-0.792,-0.528 -0.983,-1.261 -1.078,-1.962c-0.091,-0.666 -0.106,-1.321 -0.225,-1.88c-0.147,-0.689 -0.436,-1.261 -0.966,-1.679c-0.475,-0.375 -1.18,-0.647 -2.286,-0.647c-0.552,0 -1,0.448 -1,1c-0,0.552 0.448,1 1,1c0.465,0 0.79,0.046 1.011,0.19c0.237,0.156 0.27,0.431 0.316,0.723c0.061,0.375 0.082,0.789 0.126,1.213c0.104,0.987 0.323,2.004 1.053,2.875c-0.73,0.871 -0.949,1.889 -1.053,2.875c-0.044,0.424 -0.065,0.838 -0.126,1.213c-0.046,0.291 -0.078,0.566 -0.316,0.721c-0.22,0.144 -0.546,0.19 -1.011,0.19c-0.552,0 -1,0.448 -1,1c-0,0.552 0.448,1 1,1Z"/><path d="M26,38c-0.465,0 -0.791,-0.046 -1.011,-0.19c-0.238,-0.155 -0.27,-0.43 -0.316,-0.721c-0.061,-0.375 -0.082,-0.789 -0.126,-1.213c-0.104,-0.986 -0.323,-2.004 -1.053,-2.875c0.73,-0.871 0.949,-1.888 1.053,-2.875c0.044,-0.424 0.065,-0.838 0.126,-1.213c0.046,-0.292 0.079,-0.567 0.316,-0.723c0.221,-0.144 0.546,-0.19 1.011,-0.19c0.552,0 1,-0.448 1,-1c0,-0.552 -0.448,-1 -1,-1c-1.106,0 -1.811,0.272 -2.286,0.647c-0.53,0.418 -0.819,0.99 -0.966,1.679c-0.119,0.559 -0.134,1.214 -0.225,1.88c-0.095,0.701 -0.286,1.434 -1.078,1.962c-0.278,0.185 -0.445,0.497 -0.445,0.831c-0,0.334 0.166,0.647 0.444,0.832c0.792,0.53 0.984,1.264 1.079,1.966c0.091,0.665 0.106,1.32 0.225,1.878c0.147,0.689 0.436,1.261 0.966,1.679c0.475,0.375 1.18,0.646 2.286,0.646c0.552,0 1,-0.448 1,-1c0,-0.552 -0.448,-1 -1,-1Z"/>
    <path d="M33.051,26.684l-4,12c-0.174,0.523 0.109,1.09 0.633,1.265c0.523,0.174 1.09,-0.109 1.265,-0.633l4,-12c0.174,-0.523 -0.109,-1.09 -0.633,-1.265c-0.523,-0.174 -1.09,0.109 -1.265,0.633Z"/>
    <path d="M37.707,7.293c-0.187,-0.188 -0.442,-0.293 -0.707,-0.293l-19,-0c-0.791,-0 -1.548,0.304 -2.107,0.841c-0.574,0.551 -0.893,1.3 -0.893,2.079l-0,44.16c-0,0.779 0.319,1.528 0.893,2.079c0.559,0.537 1.316,0.841 2.107,0.841l28,-0c0.791,0 1.548,-0.304 2.107,-0.841c0.574,-0.551 0.893,-1.3 0.893,-2.079c-0,-0 0,-35.08 0,-35.08c0,-0.265 -0.105,-0.52 -0.293,-0.707l-11,-11Zm9.293,44.707l-0,2.08c0,0.239 -0.102,0.467 -0.278,0.636c-0.191,0.184 -0.452,0.284 -0.722,0.284l-28,-0c-0.27,0 -0.531,-0.1 -0.722,-0.284c-0.176,-0.169 -0.278,-0.397 -0.278,-0.636l-0,-2.08l30,-0Zm-11,-43l-18,-0c-0.27,-0 -0.531,0.1 -0.722,0.284c-0.176,0.169 -0.278,0.397 -0.278,0.636l-0,40.08l30,-0l-0,-30l-8,-0c-0.796,0 -1.559,-0.316 -2.121,-0.879c-0.563,-0.562 -0.879,-1.325 -0.879,-2.121l-0,-8Zm2,1.414l-0,6.586c-0,0.265 0.105,0.52 0.293,0.707c0.187,0.188 0.442,0.293 0.707,0.293l6.586,0l-7.586,-7.586Z"/>
  </g>
  <text x="0" y="79" fill="#000000" font-size="5px" font-weight="bold" font-family="'Helvetica Neue', Helvetica, Arial-Unicode, Arial, Sans-serif">
    Created by Alfan Zulkarnain
  </text>
  <text x="0" y="84" fill="#000000" font-size="5px" font-weight="bold" font-family="'Helvetica Neue', Helvetica, Arial-Unicode, Arial, Sans-serif">
    from the Noun Project
  </text>
</svg>